<svg width="160" height="44" viewBox="0 0 160 44" fill="none" xmlns="http://www.w3.org/2000/svg">
    <g clip-path="url(#clip0_3126_738)">
        <rect width="160" height="44" rx="12" fill="#CA3884" />
        <path
            d="M26.6655 28H24.4155L28.5121 16.3636H31.1143L35.2166 28H32.9666L29.8587 18.75H29.7678L26.6655 28ZM26.7393 23.4375H32.8757V25.1307H26.7393V23.4375ZM39.6314 28.1534C38.9458 28.1534 38.3321 27.9773 37.7905 27.625C37.2488 27.2727 36.8208 26.7614 36.5064 26.0909C36.192 25.4205 36.0348 24.6061 36.0348 23.6477C36.0348 22.678 36.1939 21.8598 36.5121 21.1932C36.834 20.5227 37.2678 20.017 37.8132 19.6761C38.3587 19.3314 38.9666 19.1591 39.6371 19.1591C40.1484 19.1591 40.5689 19.2462 40.8984 19.4205C41.228 19.5909 41.4893 19.7973 41.6825 20.0398C41.8757 20.2784 42.0253 20.5038 42.1314 20.7159H42.2166V16.3636H44.2791V28H42.2564V26.625H42.1314C42.0253 26.8371 41.8719 27.0625 41.6712 27.3011C41.4704 27.536 41.2053 27.7367 40.8757 27.9034C40.5462 28.0701 40.1314 28.1534 39.6314 28.1534ZM40.2053 26.4659C40.6409 26.4659 41.0121 26.3485 41.3189 26.1136C41.6257 25.875 41.8587 25.5436 42.0178 25.1193C42.1768 24.6951 42.2564 24.2008 42.2564 23.6364C42.2564 23.072 42.1768 22.5814 42.0178 22.1648C41.8625 21.7481 41.6314 21.4242 41.3246 21.1932C41.0215 20.9621 40.6484 20.8466 40.2053 20.8466C39.7469 20.8466 39.3643 20.9659 39.0575 21.2045C38.7507 21.4432 38.5196 21.7727 38.3643 22.1932C38.209 22.6136 38.1314 23.0947 38.1314 23.6364C38.1314 24.1818 38.209 24.6686 38.3643 25.0966C38.5234 25.5208 38.7564 25.8561 39.0632 26.1023C39.3738 26.3447 39.7545 26.4659 40.2053 26.4659ZM46.4709 28V19.2727H48.5277V28H46.4709ZM47.505 18.0341C47.1792 18.0341 46.8989 17.9261 46.6641 17.7102C46.4292 17.4905 46.3118 17.2273 46.3118 16.9205C46.3118 16.6098 46.4292 16.3466 46.6641 16.1307C46.8989 15.911 47.1792 15.8011 47.505 15.8011C47.8345 15.8011 48.1148 15.911 48.3459 16.1307C48.5807 16.3466 48.6982 16.6098 48.6982 16.9205C48.6982 17.2273 48.5807 17.4905 48.3459 17.7102C48.1148 17.9261 47.8345 18.0341 47.505 18.0341ZM54.4496 28.1705C53.5784 28.1705 52.8303 27.9792 52.2053 27.5966C51.584 27.214 51.1049 26.6856 50.7678 26.0114C50.4344 25.3333 50.2678 24.553 50.2678 23.6705C50.2678 22.7841 50.4382 22.0019 50.7791 21.3239C51.12 20.642 51.6011 20.1117 52.2223 19.733C52.8473 19.3504 53.5859 19.1591 54.4382 19.1591C55.1465 19.1591 55.7734 19.2898 56.3189 19.5511C56.8681 19.8087 57.3056 20.1742 57.6314 20.6477C57.9571 21.1174 58.1428 21.6667 58.1882 22.2955H56.2223C56.1428 21.875 55.9534 21.5246 55.6541 21.2443C55.3587 20.9602 54.9628 20.8182 54.4666 20.8182C54.0462 20.8182 53.6768 20.9318 53.3587 21.1591C53.0405 21.3826 52.7924 21.7045 52.6143 22.125C52.4401 22.5455 52.353 23.0492 52.353 23.6364C52.353 24.2311 52.4401 24.7424 52.6143 25.1705C52.7886 25.5947 53.0329 25.9223 53.3473 26.1534C53.6655 26.3807 54.0386 26.4943 54.4666 26.4943C54.7696 26.4943 55.0405 26.4375 55.2791 26.3239C55.5215 26.2064 55.7242 26.0379 55.8871 25.8182C56.05 25.5985 56.1617 25.3314 56.2223 25.017H58.1882C58.139 25.6345 57.9571 26.1818 57.6428 26.6591C57.3284 27.1326 56.9003 27.5038 56.3587 27.7727C55.817 28.0379 55.1806 28.1705 54.4496 28.1705ZM59.8771 28V19.2727H61.9339V28H59.8771ZM60.9112 18.0341C60.5855 18.0341 60.3052 17.9261 60.0703 17.7102C59.8355 17.4905 59.718 17.2273 59.718 16.9205C59.718 16.6098 59.8355 16.3466 60.0703 16.1307C60.3052 15.911 60.5855 15.8011 60.9112 15.8011C61.2408 15.8011 61.5211 15.911 61.7521 16.1307C61.987 16.3466 62.1044 16.6098 62.1044 16.9205C62.1044 17.2273 61.987 17.4905 61.7521 17.7102C61.5211 17.9261 61.2408 18.0341 60.9112 18.0341ZM67.8558 28.1705C67.0036 28.1705 66.2649 27.983 65.6399 27.608C65.0149 27.233 64.5301 26.7083 64.1854 26.0341C63.8445 25.3598 63.674 24.572 63.674 23.6705C63.674 22.7689 63.8445 21.9792 64.1854 21.3011C64.5301 20.6231 65.0149 20.0966 65.6399 19.7216C66.2649 19.3466 67.0036 19.1591 67.8558 19.1591C68.7081 19.1591 69.4467 19.3466 70.0717 19.7216C70.6967 20.0966 71.1797 20.6231 71.5206 21.3011C71.8653 21.9792 72.0376 22.7689 72.0376 23.6705C72.0376 24.572 71.8653 25.3598 71.5206 26.0341C71.1797 26.7083 70.6967 27.233 70.0717 27.608C69.4467 27.983 68.7081 28.1705 67.8558 28.1705ZM67.8672 26.5227C68.3293 26.5227 68.7157 26.3958 69.0263 26.142C69.3369 25.8845 69.5679 25.5398 69.7195 25.108C69.8748 24.6761 69.9524 24.1951 69.9524 23.6648C69.9524 23.1307 69.8748 22.6477 69.7195 22.2159C69.5679 21.7803 69.3369 21.4337 69.0263 21.1761C68.7157 20.9186 68.3293 20.7898 67.8672 20.7898C67.3937 20.7898 66.9998 20.9186 66.6854 21.1761C66.3748 21.4337 66.1418 21.7803 65.9865 22.2159C65.835 22.6477 65.7592 23.1307 65.7592 23.6648C65.7592 24.1951 65.835 24.6761 65.9865 25.108C66.1418 25.5398 66.3748 25.8845 66.6854 26.142C66.9998 26.3958 67.3937 26.5227 67.8672 26.5227ZM75.8402 22.8864V28H73.7834V19.2727H75.7493V20.7557H75.8516C76.0523 20.267 76.3724 19.8788 76.8118 19.5909C77.255 19.303 77.8023 19.1591 78.4538 19.1591C79.0561 19.1591 79.5807 19.2879 80.0277 19.5455C80.4785 19.803 80.8269 20.1761 81.0732 20.6648C81.3232 21.1534 81.4463 21.7462 81.4425 22.4432V28H79.3857V22.7614C79.3857 22.178 79.2341 21.7216 78.9311 21.392C78.6319 21.0625 78.2171 20.8977 77.6868 20.8977C77.3269 20.8977 77.0069 20.9773 76.7266 21.1364C76.45 21.2917 76.2322 21.517 76.0732 21.8125C75.9179 22.108 75.8402 22.4659 75.8402 22.8864ZM86.0447 28.1761C85.4917 28.1761 84.9936 28.0777 84.5504 27.8807C84.111 27.6799 83.7625 27.3845 83.505 26.9943C83.2512 26.6042 83.1243 26.1231 83.1243 25.5511C83.1243 25.0587 83.2152 24.6515 83.397 24.3295C83.5788 24.0076 83.8269 23.75 84.1413 23.5568C84.4557 23.3636 84.8099 23.2178 85.2038 23.1193C85.6016 23.017 86.0125 22.9432 86.4368 22.8977C86.9482 22.8447 87.3629 22.7973 87.6811 22.7557C87.9993 22.7102 88.2304 22.642 88.3743 22.5511C88.522 22.4564 88.5959 22.3106 88.5959 22.1136V22.0795C88.5959 21.6515 88.469 21.3201 88.2152 21.0852C87.9614 20.8504 87.5959 20.733 87.1186 20.733C86.6148 20.733 86.2152 20.8428 85.9197 21.0625C85.6281 21.2822 85.4311 21.5417 85.3288 21.8409L83.4084 21.5682C83.5599 21.0379 83.8099 20.5947 84.1584 20.2386C84.5069 19.8788 84.933 19.6098 85.4368 19.4318C85.9406 19.25 86.4974 19.1591 87.1072 19.1591C87.5277 19.1591 87.9463 19.2083 88.3629 19.3068C88.7796 19.4053 89.1603 19.5682 89.505 19.7955C89.8497 20.0189 90.1262 20.3239 90.3345 20.7102C90.5466 21.0966 90.6527 21.5795 90.6527 22.1591V28H88.6754V26.8011H88.6072C88.4822 27.0436 88.3061 27.2708 88.0788 27.483C87.8554 27.6913 87.5732 27.8598 87.2322 27.9886C86.8951 28.1136 86.4993 28.1761 86.0447 28.1761ZM86.5788 26.6648C86.9917 26.6648 87.3497 26.5833 87.6527 26.4205C87.9557 26.2538 88.1887 26.0341 88.3516 25.7614C88.5182 25.4886 88.6016 25.1913 88.6016 24.8693V23.8409C88.5372 23.8939 88.4273 23.9432 88.272 23.9886C88.1205 24.0341 87.95 24.0739 87.7607 24.108C87.5713 24.142 87.3838 24.1723 87.1982 24.1989C87.0125 24.2254 86.8516 24.2481 86.7152 24.267C86.4084 24.3087 86.1338 24.3769 85.8913 24.4716C85.6489 24.5663 85.4576 24.6989 85.3175 24.8693C85.1773 25.036 85.1072 25.2519 85.1072 25.517C85.1072 25.8958 85.2455 26.1818 85.522 26.375C85.7985 26.5682 86.1508 26.6648 86.5788 26.6648ZM92.7209 28V19.2727H94.7152V20.7273H94.8061C94.9652 20.2235 95.2379 19.8352 95.6243 19.5625C96.0144 19.286 96.4595 19.1477 96.9595 19.1477C97.0732 19.1477 97.2 19.1534 97.3402 19.1648C97.4841 19.1723 97.6035 19.1856 97.6982 19.2045V21.0966C97.611 21.0663 97.4728 21.0398 97.2834 21.017C97.0978 20.9905 96.9179 20.9773 96.7436 20.9773C96.3686 20.9773 96.0315 21.0587 95.7322 21.2216C95.4368 21.3807 95.2038 21.6023 95.0334 21.8864C94.8629 22.1705 94.7777 22.4981 94.7777 22.8693V28H92.7209ZM103.033 28V19.2727H105.09V28H103.033ZM104.067 18.0341C103.742 18.0341 103.461 17.9261 103.227 17.7102C102.992 17.4905 102.874 17.2273 102.874 16.9205C102.874 16.6098 102.992 16.3466 103.227 16.1307C103.461 15.911 103.742 15.8011 104.067 15.8011C104.397 15.8011 104.677 15.911 104.908 16.1307C105.143 16.3466 105.261 16.6098 105.261 16.9205C105.261 17.2273 105.143 17.4905 104.908 17.7102C104.677 17.9261 104.397 18.0341 104.067 18.0341ZM111.563 19.2727V20.8636H106.546V19.2727H111.563ZM107.785 17.1818H109.842V25.375C109.842 25.6515 109.883 25.8636 109.967 26.0114C110.054 26.1553 110.167 26.2538 110.308 26.3068C110.448 26.3598 110.603 26.3864 110.773 26.3864C110.902 26.3864 111.02 26.3769 111.126 26.358C111.236 26.339 111.319 26.322 111.376 26.3068L111.722 27.9148C111.612 27.9527 111.455 27.9943 111.251 28.0398C111.05 28.0852 110.804 28.1117 110.512 28.1193C109.997 28.1345 109.533 28.0568 109.12 27.8864C108.707 27.7121 108.379 27.4432 108.137 27.0795C107.898 26.7159 107.781 26.2614 107.785 25.7159V17.1818ZM117.053 28.1705C116.178 28.1705 115.423 27.9886 114.786 27.625C114.154 27.2576 113.667 26.7386 113.326 26.0682C112.985 25.3939 112.815 24.6004 112.815 23.6875C112.815 22.7898 112.985 22.0019 113.326 21.3239C113.671 20.642 114.152 20.1117 114.769 19.733C115.387 19.3504 116.112 19.1591 116.945 19.1591C117.483 19.1591 117.991 19.2462 118.468 19.4205C118.949 19.5909 119.373 19.8561 119.741 20.2159C120.112 20.5758 120.404 21.0341 120.616 21.5909C120.828 22.1439 120.934 22.803 120.934 23.5682V24.1989H113.781V22.8125H118.962C118.959 22.4186 118.873 22.0682 118.707 21.7614C118.54 21.4508 118.307 21.2064 118.008 21.0284C117.712 20.8504 117.368 20.7614 116.974 20.7614C116.553 20.7614 116.184 20.8636 115.866 21.0682C115.548 21.2689 115.299 21.5341 115.121 21.8636C114.947 22.1894 114.858 22.5473 114.854 22.9375V24.1477C114.854 24.6553 114.947 25.0909 115.133 25.4545C115.318 25.8144 115.578 26.0909 115.911 26.2841C116.245 26.4735 116.635 26.5682 117.082 26.5682C117.381 26.5682 117.652 26.5265 117.894 26.4432C118.137 26.3561 118.347 26.2292 118.525 26.0625C118.703 25.8958 118.837 25.6894 118.928 25.4432L120.849 25.6591C120.728 26.1667 120.496 26.6098 120.156 26.9886C119.818 27.3636 119.387 27.6553 118.86 27.8636C118.334 28.0682 117.731 28.1705 117.053 28.1705ZM122.674 28V19.2727H124.64V20.7557H124.742C124.924 20.2557 125.225 19.8655 125.646 19.5852C126.066 19.3011 126.568 19.1591 127.151 19.1591C127.742 19.1591 128.24 19.303 128.646 19.5909C129.055 19.875 129.343 20.2633 129.509 20.7557H129.6C129.793 20.2708 130.119 19.8845 130.577 19.5966C131.04 19.3049 131.587 19.1591 132.219 19.1591C133.022 19.1591 133.678 19.4129 134.185 19.9205C134.693 20.428 134.947 21.1686 134.947 22.142V28H132.884V22.4602C132.884 21.9186 132.74 21.5227 132.452 21.2727C132.165 21.0189 131.812 20.892 131.396 20.892C130.899 20.892 130.511 21.0473 130.231 21.358C129.954 21.6648 129.816 22.0644 129.816 22.5568V28H127.799V22.375C127.799 21.9242 127.663 21.5644 127.39 21.2955C127.121 21.0265 126.769 20.892 126.333 20.892C126.038 20.892 125.769 20.9678 125.526 21.1193C125.284 21.267 125.091 21.4773 124.947 21.75C124.803 22.0189 124.731 22.3333 124.731 22.6932V28H122.674Z"
            fill="white" />
    </g>
    <defs>
        <clipPath id="clip0_3126_738">
            <rect width="160" height="44" rx="12" fill="white" />
        </clipPath>
    </defs>
</svg>